PathFileType	4	(X/Y/Z)	C:/Users/beibeiliu/ov580/test_trc\sequence.25_training_dense_right.trc
DataRate	CameraRate	NumFrames	NumMarkers	Units	OrigDataRate	OrigDataStartFrame	OrigNumFrames
120	120	20	19	mm	120	151	300
Frame#	Time	ThumbCMC			ThumbMCP			ThumbIP			ThumbTip			IndexMCP			IndexPIP			IndexTip			MiddleMCP			MiddlePIP			MiddleTip			RingMCP			RingPIP			RingTip			PinkyMCP			PinkyPIP			PinkyTip			BackHand1			BackHand2			BackHand3	
		X0	Y0	Z0	X1	Y1	Z1	X2	Y2	Z2	X3	Y3	Z3	X4	Y4	Z4	X5	Y5	Z5	X6	Y6	Z6	X7	Y7	Z7	X8	Y8	Z8	X9	Y9	Z9	X10	Y10	Z10	X11	Y11	Z11	X12	Y12	Z12	X13	Y13	Z13	X14	Y14	Z14	X15	Y15	Z15	X16	Y16	Z16	X17	Y17	Z17	X18	Y18	Z18	
150	1.25	178.901	11.8779	28.7819	176.268	17.2016	-5.11759	178.316	27.8595	-25.5543	185.627	42.445	-43.9332	159.161	66.8548	-2.78717	153.763	77.8803	-21.5369	149.957	89.5303	-46.7322	174.743	79.2417	-8.84475	170.451	86.1076	-36.7469	174.334	78.3309	-65.1842	198.767	66.0744	-15.8619	203.648	41.2551	-30.4935	204.95	26.5431	-9.38293	214.617	61.7016	-11.2248	217.01	40.1224	-20.378	214.025	29.5025	6.268	202.716	61.781	33.0757	211.213	45.0486	52.7235	184.415	43.186	43.9168	
151	1.25833	175.008	15.0216	24.8988	174.05	14.231	-7.849	178.664	30.3914	-28.0173	188.316	40.8467	-44.5497	157.02	63.9223	-10.2312	156.585	73.1757	-31.0954	152.195	81.3397	-57.1878	175.519	75.7195	-14.6296	168.756	81.9806	-40.0137	165.598	82.335	-66.3363	201.29	63.1154	-25.9566	205.769	36.8306	-33.1056	207.524	24.4897	-11.2573	218.989	60.5074	-16.8848	216.669	34.2957	-19.8412	213.206	30.9158	6.73791	201.524	62.0903	28.4956	214.186	46.7244	51.6115	182.607	44.6473	40.101	
152	1.26667	176.836	18.3105	24.8907	173.288	14.0567	-7.54974	177.435	27.002	-34.7684	187.748	37.1708	-48.7786	160.559	64.2177	-17.0792	155.84	69.3292	-40.1637	154.027	72.6068	-63.7642	175.004	75.3279	-26.5441	168.65	76.2627	-47.9283	169.633	81.7934	-72.9837	201.22	60.0714	-26.3075	202.656	36.0253	-35.5608	204.463	21.1292	-12.0202	216.378	56.0763	-19.0297	218.138	29.7891	-18.3045	211.307	28.4854	3.41958	205.529	66.3596	24.5404	208.628	46.847	47.8318	181.141	45.9004	37.6734	
153	1.275	174.067	19.25	26.4454	171.809	14.2261	-8.59879	178.202	24.0427	-35.0112	190.747	29.6476	-51.113	157.639	61.3078	-25.3562	157.599	64.2166	-47.4278	158.132	64.9131	-69.9123	176.021	69.7294	-27.5311	174.071	71.469	-56.3507	169.66	72.3704	-81.1498	200.756	55.0372	-32.8543	205.618	29.1032	-35.1348	207.252	17.9086	-10.5223	218.136	52.4647	-23.0851	216.499	27.7525	-19.2906	206.799	29.6589	4.47229	203.976	67.338	18.669	207.315	56.3696	42.9118	181.796	50.7628	34.3584	
154	1.28333	173.696	22.418	24.8924	172.439	13.7117	-8.88247	181.653	18.832	-32.7335	195.48	25.3418	-50.7511	162.519	58.4312	-33.501	159.598	57.0465	-55.2371	162.262	55.5891	-76.8367	180.403	66.4983	-35.811	179.223	64.7731	-58.1714	176.603	63.2403	-86.2162	205.004	53.1851	-32.4772	211.259	26.8043	-36.635	205.326	14.2897	-11.359	221.976	49.9273	-23.0299	219.097	26.203	-21.3066	209.629	23.7025	3.01961	202.264	64.8717	16.242	208.424	58.0569	41.4792	177.282	54.808	29.9392	
155	1.29167	172.53	24.8904	25.3919	172.076	12.2224	-8.09429	181.808	14.9011	-33.3706	198.216	21.7937	-46.289	163.918	55.7665	-35.8275	164.522	51.4944	-59.2836	161.957	48.0743	-76.6174	179.505	62.7556	-41.1168	183.485	60.3383	-65.2228	182.713	55.4648	-90.1658	208.783	50.5989	-32.5851	212.111	21.6208	-35.1131	206.507	13.3699	-7.54783	222.812	49.4629	-23.2627	219.566	22.9512	-18.1972	207.051	24.6018	4.96797	203.4	69.7514	10.5222	205.909	61.0413	38.9649	178.446	56.4482	27.0961	
156	1.3	168.292	25.8712	22.9795	173.264	10.8602	-4.13877	183.719	11.6744	-28.093	197.899	15.0659	-45.2341	161.873	51.5335	-37.9093	162.977	46.7874	-62.0211	163.771	40.7313	-79.8441	183.883	59.67	-43.1735	181.836	53.6378	-62.6624	189.446	47.6071	-91.7044	205.546	44.9412	-37.0306	209.353	17.6031	-31.8816	204.799	12.5646	-5.98269	223.179	46.7916	-22.6979	217.233	23.3913	-18.8737	206.062	24.2821	7.37487	199.932	69.3333	7.73308	200.079	63.4099	37.5135	175.205	61.257	23.6671	
157	1.30833	166.319	25.8725	24.9124	172.743	12.7422	-8.50778	184.474	12.0501	-30.8943	202.257	17.1023	-43.6825	164.768	49.444	-36.7169	162.186	41.1997	-60.7696	165.286	32.9349	-83.7297	183.508	55.6085	-46.6028	188.859	48.4425	-68.2122	194.302	41.1336	-91.8393	210.93	44.6877	-33.719	211.956	17.7736	-32.2512	209.203	10.5561	-4.10643	224.566	45.2845	-21.8936	218.307	21.9929	-16.2787	207.197	22.8056	6.31621	199.085	70.5491	11.3315	195.924	68.4077	37.6867	171.023	60.0813	21.1195	
158	1.31667	165.49	30.5433	19.653	170.694	11.5672	-4.48475	185.561	12.1168	-27.3783	204.24	14.4731	-43.8826	166.206	48.3452	-41.4915	164.278	38.5224	-59.5459	169.764	30.133	-82.995	187.786	55.2314	-44.5298	190.929	45.9955	-66.2225	198.623	35.6129	-89.3142	209.954	42.8137	-33.3683	212.028	16.9841	-29.2037	203.191	11.3747	0.189339	225.943	44.1845	-20.63	217.078	20.6612	-11.9363	208.528	24.2361	10.5153	199.222	72.2488	4.61588	194.848	69.3995	33.0069	169.984	62.3258	17.7769	
159	1.325	163.062	32.7974	23.422	172.746	17.0504	-3.64153	184.356	12.7508	-22.6545	205.334	15.1177	-40.8313	166.649	44.5689	-42.7928	169.072	35.8239	-59.2201	170.205	22.8577	-82.1469	188.719	51.9971	-43.6683	195.859	38.2632	-68.9816	200.72	28.3402	-85.5235	208.914	40.879	-31.0797	212.702	13.1864	-24.1064	206.642	11.5368	2.0711	222.966	44.5322	-18.574	219.926	19.8472	-7.68301	203.535	27.5443	10.0214	201.498	73.1675	7.43086	198.957	74.0717	31.3326	174.543	68.1258	14.3758	
160	1.33333	166.558	37.499	19.6498	170.301	12.9588	-2.79961	183.681	7.78868	-23.9045	205.674	10.2973	-39.3055	168.114	41.9569	-42.5685	172.465	30.9351	-59.6766	175.957	16.5433	-82.7776	189.924	45.4152	-47.5194	194.865	31.4123	-66.5425	203.617	20.6739	-82.5618	211.635	35.3685	-32.251	211.654	11.9452	-20.7441	204.241	14.8971	7.07622	226.257	40.0632	-17.1613	219.217	20.6779	-7.65404	206.602	27.2818	12.815	199.707	73.8654	6.13322	198.495	77.232	28.5484	171.19	67.3293	14.6119	
161	1.34167	164.308	39.0702	22.7114	171.358	14.5853	-2.15742	186.794	8.50387	-23.6428	203.946	6.34207	-33.0909	171.144	41.6455	-42.1997	177.137	27.7484	-59.7538	180.075	9.95934	-79.3027	191.753	42.5529	-47.0324	201.183	30.256	-61.0779	203.023	13.018	-80.1249	213.95	34.8943	-29.1196	213.37	10.5616	-16.5658	204.966	13.6527	7.26174	225.961	37.4545	-15.2023	222.098	19.4258	-1.22046	207.086	29.2951	17.3771	199.683	73.2857	1.07305	196.63	80.0015	31.377	172.173	71.2177	13.5412	
162	1.35	164.92	42.684	20.5707	169.707	14.7728	0.654413	185.195	7.3419	-16.6437	204.71	3.49607	-27.2618	175.1	39.8324	-40.057	179.92	24.009	-57.0161	178.715	6.25868	-70.8826	196.038	39.3458	-45.6516	199.234	23.2649	-60.1739	205.582	1.25711	-77.5308	213.057	30.4242	-27.7934	211.302	8.28483	-14.6149	201.407	18.5977	11.9036	230.636	36.9298	-13.2187	219.522	17.5713	1.48995	205.228	32.6501	18.1756	207.161	72.7388	-0.852853	201.822	82.4001	27.303	174.482	70.1493	8.3352	
163	1.35833	164.031	44.6668	24.0607	171.645	16.6356	2.89138	188.24	5.92718	-12.3904	206.125	-1.52041	-21.5665	174.788	31.6255	-42.1046	180.498	16.2959	-53.4364	184.905	-5.1343	-67.5822	195.954	35.2419	-42.6321	204.585	15.5253	-55.4719	205.39	-6.76149	-66.133	216.738	26.166	-24.8859	214.008	5.43569	-6.85784	204.72	16.6904	15.5642	229.024	30.4782	-10.35	218.038	15.4189	4.89031	203.931	33.1265	21.7463	207.459	71.9441	-0.296556	204.492	82.7491	23.2364	179.15	72.3636	11.2946	
164	1.36667	169.94	48.1275	23.2506	172.628	16.5346	8.53608	188.951	1.9842	-7.82748	205.143	-5.53654	-12.707	182.977	30.0377	-38.511	182.219	6.74131	-49.7518	184.832	-11.3711	-56.6227	200.218	26.6207	-40.1889	203.731	4.25361	-49.217	208.783	-22.7369	-54.6884	218.278	19.8816	-20.9019	212.955	2.72115	-1.52894	203.439	19.4278	19.8947	232.073	25.6068	-7.07354	222.812	11.6588	12.2297	206.275	33.9293	24.6403	215.544	69.4771	-0.855331	211.154	82.745	25.9853	185.054	72.8647	9.80145	
165	1.375	172.824	50.7789	24.3912	174.143	15.9451	11.7955	189.058	-3.18966	-3.88587	208.574	-10.29	-8.37228	183.331	26.3413	-35.4298	185.663	1.47728	-45.7831	185.605	-18.0722	-49.6905	208.241	23.9532	-35.2712	208.427	-5.36162	-43.1992	209.739	-31.6894	-41.6287	222.669	15.3498	-17.143	211.015	-0.755504	-1.1721	205.687	17.3808	22.3418	229.135	17.7941	-3.74084	219.547	8.26981	12.2709	209.066	31.4027	26.9463	217.9	66.7406	1.48136	217.407	78.6347	22.5435	190.654	71.6256	7.11702	
166	1.38333	175.762	47.8681	20.603	176.533	15.5384	12.9972	185.673	-3.60458	4.42763	204.327	-13.7566	-2.51437	189.254	21.5138	-33.8433	188.559	-3.65685	-41.1598	185.722	-25.1053	-43.5828	205.394	16.0402	-35.626	203.915	-11.1369	-38.6938	201.735	-39.463	-28.0813	221.74	11.5582	-15.7789	213.444	-4.93782	5.69947	205.037	13.5875	23.6049	231.88	17.9572	-3.24619	221.473	4.37694	15.9389	209.012	25.3001	22.9536	220.283	59.0679	-1.29194	220.073	74.5231	20.3973	193.999	70.785	4.77608	
167	1.39167	174.355	47.1127	23.6834	175.081	14.7017	16.5159	187.681	-8.47313	3.20224	203.987	-18.4021	1.89491	184.978	17.0768	-33.8698	185.513	-4.78251	-38.4239	186.429	-33.0241	-36.8223	204.892	12.0646	-33.1422	204.952	-15.0064	-33.2475	201.453	-42.5221	-14.8598	222.11	6.69687	-13.5943	209.391	-9.43581	7.54889	205.692	10.022	25.7699	234.658	10.4059	-0.260239	219.707	-0.0112478	15.1238	211.666	22.3673	25.6036	224.095	54.0091	-0.567336	224.217	73.149	21.1722	198.84	67.9242	3.8643	
168	1.4	175.056	46.7957	27.2771	177.095	13.7527	18.8354	186.006	-5.73696	10.1356	202.757	-19.8433	4.38126	185.327	15.4029	-29.0135	186.79	-13.0807	-33.3064	183.381	-35.3562	-29.7265	205.01	8.44337	-28.9383	202.184	-20.5896	-26.7631	198.525	-39.1241	-1.50659	223.003	0.880538	-10.1303	209.892	-12.6872	14.199	203.198	11.2662	27.8662	234.532	1.44572	3.07112	217.423	-2.33861	18.4941	211.107	19.4521	29.3795	226.827	51.839	0.593946	224.579	68.4957	18.0264	201.593	64.8511	7.51035	
169	1.40833	178.809	47.3168	27.7324	172.669	12.9125	21.4688	181.724	-7.25761	13.6272	199.719	-27.3609	8.36582	188.321	6.56199	-27.5129	182.797	-13.8844	-29.2127	177.277	-36.8589	-23.2498	203.439	2.21818	-24.6599	196.072	-28.4008	-15.5056	191.055	-37.9098	13.1087	218.888	-3.2647	-6.1387	206.257	-14.3388	18.006	202.851	11.0617	30.8092	232.18	-3.72745	6.8422	219.225	-7.6676	23.2707	210.162	20.4159	29.3073	230.072	45.5299	-0.153389	225.962	66.0857	23.1748	203.774	61.1659	8.71387	
